Plot:

A new, technologically-superior Soviet sub, the Red October, is heading for the U.S. coast under the command of Marko Ramius. The American government thinks Ramius is planning to attack. A lone CIA analyst has a different idea: he thinks Ramius is planning to defect, but he has only a few hours to find him and prove it--because the entire Russian naval and air commands are trying to find him, too. The hunt is on!


General

Title:               The Hunt for Red October
Director:            John McTiernan
Release Date:        2 March 1990 (USA)
Language:            English
Runtime:             134 min
Genre:               Action | Adventure | Thriller
Color:               Color
IMDb Rating:         7.6/10 52,412 votes
Link:                http://www.imdb.com/title/tt0099810/
Studio:              Paramount
Language:            English
Subtitles:           English, English SDH , French, Spanish
Sample Video:        yes
Total Download Size: 2.33 GB


Video

Format                           : H.264/MPEG-4 AVC
Format/Info                      : Advanced Video Codec
Format profile                   : High@L4.1
Format settings, CABAC           : Yes
Format settings, ReFrames        : 2 frames
Codec ID                         : avc1
Codec ID/Info                    : Advanced Video Coding
Duration                         : 2h 15mn
Bit rate mode                    : Variable
Bit rate                         : 1 940 Kbps
Maximum bit rate                 : 4 506 Kbps
Width                            : 1 376 pixels
Height                           : 768 pixels
Display aspect ratio             : 16:9
Frame rate mode                  : Constant
Frame rate                       : 23.976 fps
Resolution                       : 24 bits
Colorimetry                      : 4:2:0
Scan type                        : Progressive
Bits/(Pixel*Frame)               : 0.077
Stream size                      : 1.83 GiB (79%)


Audio

Format                           : mp4a - MPEG-4 AAC LC
Format/Info                      : Advanced Audio Codec
Format version                   : Version 4
Format profile                   : LC
Format settings, SBR             : No
Codec ID                         : 40
Duration                         : 2h 15mn
Bit rate mode                    : Variable
Bit rate                         : 512 Kbps
Maximum bit rate                 : 611 Kbps
Channel(s)                       : 6 channels
Channel positions                : Front: L C R, Rear: L R, LFE
Sampling rate                    : 48.0 KHz
Resolution                       : 16 bits
Stream size                      : 494 MiB (21%)

Please Let me know if this works on a PS3.

Thanks and keep seeding.

IceBane

